<svg viewBox="0 0 96 96" xmlns="http://www.w3.org/2000/svg">
  <defs>
    <linearGradient id="g" x1="0%" y1="0%" x2="100%" y2="100%">
      <stop offset="0%" stop-color="#00FFC8" />
      <stop offset="100%" stop-color="#075E54" />
    </linearGradient>
  </defs>
  <rect width="96" height="96" rx="20" fill="#0A192F" />
  <g transform="translate(0,0)">
    <path d="M48 10 L82 22 L82 50 C82 70 66 84 48 90 C30 84 14 70 14 50 L14 22 Z" fill="none" stroke="url(#g)" stroke-width="3.5" stroke-linejoin="round" />
    <g stroke="url(#g)" stroke-width="1.4" opacity="0.6">
      <line x1="48" y1="24" x2="32" y2="42" />
      <line x1="48" y1="24" x2="64" y2="42" />
      <line x1="32" y1="42" x2="48" y2="58" />
      <line x1="64" y1="42" x2="48" y2="58" />
    </g>
    <g fill="#00FFC8">
      <circle cx="48" cy="24" r="2.8" />
      <circle cx="32" cy="42" r="2.2" />
      <circle cx="64" cy="42" r="2.2" />
      <circle cx="48" cy="58" r="2.8" />
    </g>
    <path d="M22 56 Q 36 66 48 60" fill="none" stroke="#00FFC8" stroke-width="3.5" stroke-linecap="round" />
    <path d="M74 56 Q 60 66 48 60" fill="none" stroke="#00FFC8" stroke-width="3.5" stroke-linecap="round" />
    <circle cx="48" cy="60" r="3" fill="#00FFC8" />
  </g>
</svg>
